<?xml version="1.0" encoding="UTF-8"?>
<svg version="1.1" viewBox="0 0 2048 1243" width="1280" height="1280" xmlns="http://www.w3.org/2000/svg">
<path transform="translate(1273,140)" d="m0 0h20l9 6 1-1h8l4-1 6 4v2h5l4-1 5 4v2l8-1 17 9 14 7 8 6 9 6 9 8 6 3 17 17 4 8 7 7 8 14 19 38v11l5 7-1 6 5 6v31l4 4v35l-4 4v36l-4 2-1 6 1 4v8l-3 5-3 4 1 1v6l-5 5 1 12-1 2h-2l-1 4h-3l2 3v6l-3 1v3h-3l2 5v4l-2 1-2 4h-3l3 9h-4v4l-2 2v6l1 4h2l2 6 5 8 2 5 5 4 2 5v6l3 5 9 17 3 11 7 14h88l174 1 6 5v199l-2 1h-9l-23-23-5-9-11-11-9-15-5 1-5 10-12 13-4 4-3 7-18 18-6 1-1-1v-181h-151l1 12 4 2 1 25 4 2v171l-1 1h-277v264h628v8l-1 2h-939l-698-1-1-3 2-6 2-1h725v-258h-605l-1-4v-50l1-1h236v-98l4-4 1-34 4-3v-18l5-6-1-10 3-5 2-2-1-6 3-6 4-1-2-7 1-4 5-2-1-4 3-5 2-4-1-5 5-6 3-7 5-6 8-16 6-8 4-7 8-8 5-9 9-10 20-20 11-6 9-9 8-4 7-6 7-3 5-3 4-1 5-4 3 1v2l4-1 2-4 6-2 4 2 4-5 9-1 5 1 3-2 1-3h526l1 2 15 2 6 3 10 2 3 2 1 3 4-1 7 3 15 7 5 3 4 2 5-5 2-3h2l-2-4 1-6 4-3-1-7 5-6v-13l5-6v-14l4-3v-69l-10-19-7-8-16-16-5-4-4-1-10-9-4-3-16-8-13-7h-34l-7 4-15 8-9 9-8 4-22 22-3 7-17 17-8 4h-2l-2 4-5 3h-6l-8-6-5-6v-8l-4-4-1-7v-12l5-6v-17l5-6-1-7 4-5 3-7 5-10 5-5 3-7 9-10 6-10 17-17 9-5 5-4 19-10 7-3 3-2h19l2-4zm-386 292-1 3 2 3 4-1 1-3-1-2z" fill="#2F176A"/>
<path transform="translate(929,432)" d="m0 0h333l26 2 24 5 20 7 20 10 17 10 14 11 12 11 12 12 10 11 13 19 9 15 10 18 8 17 9 21 3 10-1 1h-129l2 6 13 2h99l17 1 3 5 8 39 2 15 1 16v138l-3 2h-7l1 6h-251l1-5-44-1h-142l-1-1-1-135-3-34-3-20v-4l24-6 23-3h23l26 5 25 11 11 7 13 10 8 6 7 1 1-5-12-10-19-13-22-10-20-6-22-4h-18l-21 2-21 5-8 2-2-8v-6l25-12 21-6 14-3 7-1 25-1 18 3 20 6 31 14 3 1 1-6-3-3-29-14-23-6-15-3h-15l-21 2-25 6-14 5-21 10-3-3-8-23-11-24-12-23-11-18-9-12-8-10-11-13-7-8-9-9-14-11-14-10-15-9-3-2 1-4z" fill="#FDFDFD"/>
<path transform="translate(829,451)" d="m0 0 18 2 14 3 13 5 16 9 16 13 11 12 9 12v2h15l17-3h3l13 19 10 15 9 16 8 17 10 28 4 13v5l-11 8-10 8 1 5 6-2 12-9 5-3 2 3 1 7-8 5-19 9-1 4v3l16-6 12-6h2l2 10 3 27 2 41v60l-1 8-1 1h-152l-93-1 1-4 10-13 11-12 11-8 8-4 8-3 11-2-1-5h-8l-17 6-11 7-16 16-11 14-6 8h-32l-2-2 13-16 10-11 11-8 8-4 9-3 10-2-2-5-10 1-12 4-10 6-11 9-13 15-10 13-4 3h-32l1-4 9-12 9-10 11-9 14-10 15-8 17-6 11-2-4-6-7-8-8-13-7-17-4-16-2-14v-16l4-1 16 5 22 11 4 1 3-2-1-3-22-11-17-6-7-3 3-16 6 2 13 8 14 11 6 4h5l-1-4-11-10-18-12-11-6 1-5 12-23 8-12 10-12-1-6-9-14-10-10-22-18-13-10 1-5 8-8 14-10 12-7 19-8 27-7z" fill="#FA7825"/>
<path transform="translate(765,423)" d="m0 0h49l25 1 8 4 3 1 13 4 4 2 6 2 3 3 9 3 3 3 7 3 3 1 3 3h2l4 4 7 3 13 10 3 3 7 6 20 20v2l4 4-3 2-17 3h-13l-5-5-9-12-11-12-16-12-17-9-17-5-21-3-16 2-27 7-21 9-16 10-11 9-5 5 1 5 12 9 17 14 12 11 6 7 7 12-1 5-9 11-9 14-12 23v3l15 8 15 11 11 10-1 3-5 1-11-8-13-10-15-8-2 16 18 6 25 12 4 3-2 4-3 1-23-11-14-5-7-1v16l4 24 7 19 6 11 9 12 5 6v2l-20 6-16 7-16 10-13 11-6 5-9 11-6 8-1 3h-102l-30-1v-96l4-4 1-34 4-3v-18l5-6-1-10 3-5 2-2-1-6 3-6 4-1-2-7 1-4 5-2-1-4 3-5 2-4-1-5 5-6 3-7 5-6 8-16 6-8 4-7 8-8 5-9 9-10 20-20 11-6 9-9 8-4 7-6 7-3 5-3 4-1 5-4 3 1v2l4-1 2-4 6-2 4 2 4-5 9-1 5 1 3-2z" fill="#581ECA"/>
<path transform="translate(1273,140)" d="m0 0h20l9 6 1-1h8l4-1 6 4v2h5l4-1 5 4v2l8-1 17 9 14 7 8 6 9 6 9 8 6 3 17 17 4 8 7 7 8 14 19 38v11l5 7-1 6 5 6v31l4 4v35l-4 4v36l-4 2-1 6 1 4v8l-3 5-3 4 1 1v6l-5 5 1 12-1 2h-2l-1 4h-3l2 3v6l-3 1v3h-3l2 5v4l-2 1-2 4h-3l3 9h-4v4l-2 2-1 6-5-3-9-12-9-11-11-13-11-10-13-10-10-7-7-6 3-5 4-4h2l-2-4 1-6 4-3-1-7 5-6v-13l5-6v-14l4-3v-69l-10-19-7-8-16-16-5-4-4-1-10-9-4-3-16-8-13-7h-34l-7 4-15 8-9 9-8 4-22 22-3 7-17 17-8 4h-2l-2 4-5 3h-6l-8-6-5-6v-8l-4-4-1-7v-12l5-6v-17l5-6-1-7 4-5 3-7 5-10 5-5 3-7 9-10 6-10 17-17 9-5 5-4 19-10 7-3 3-2h19l2-4z" fill="#FA7825"/>
<path transform="translate(1636,620)" d="m0 0h111v194l-2 1h-9l-23-23-5-9-11-11-9-15-5 1-5 10-12 13-4 4-3 7-18 18-6 1-1-1v-181h-150l-2-3v-5z" fill="#FA7825"/>
<path transform="translate(1685,661)" d="m0 0h10l10 5 8 9 3 10v25l-3 8-5 8-9 6-3 1h-13l-10-6-4-5-4-8-1-4v-26l3-10 6-7z" fill="#FEFEFE"/>
<path transform="translate(1190,834)" d="m0 0h293l-2 2h-7l1 6h-251l1-5-44-1v-1z" fill="#FA7825"/>
<path transform="translate(667,589)" d="m0 0h28l13 2 19 5 19 7 9 4 5 1 15 8 15 11 11 10-1 3-5 1-11-8-13-10-16-8-17-8-24-5-13-2-15-1h-19l-22 5-18 6-13 6-9 3-5-1v-5l8-5 19-9 20-6z" fill="#2D166A"/>
<path transform="translate(692,625)" d="m0 0h25l20 3 27 6 19 8 17 9v4l-4 2-23-11-14-5-16-4-35-3h-17l-25 5-13 5-16 8-12 7-11 8-9 6-4-1 1-5 5-5 12-10 16-10 25-10 26-6z" fill="#2D166A"/>
<path transform="translate(894,629)" d="m0 0h34l8 2 2 3-3 5-13 12-4 4 1 9 3 10 4-1 5-8 6-1 1 5-4 7-7 6-6 1-5-3-4-9v-2l-4 4-4 5-4 2-8-1-6-7-1-6 5-1 5 5 4 1 6-12v-8l-4-5-8-7-2-3 1-5z" fill="#2D166A"/>
<path transform="translate(1482,621)" d="m0 0h151v8h-149l-2-3z" fill="#FDEEE4"/>
<path transform="translate(1687,676)" d="m0 0h7l6 3 2 3v30l-3 5-3 2h-12l-5-5-1-2v-29l4-5z" fill="#FA7825"/>
<path transform="translate(810,480)" d="m0 0h11l21 5 16 9 6 4 1 3-5 3-21-10-21-6-12 1-18 4-15 6-12 7-5 1-2-2 1-4 12-9 13-6 16-4z" fill="#2D166B"/>
<path transform="translate(867,579)" d="m0 0h5l6 7 4 10v7l-4 11-5 6-2 1h-7l-5-4-5-10 1-13 4-8z" fill="#2D166A"/>
<path transform="translate(968,573)" d="m0 0 6 1 6 7 2 5v12l-4 10-5 6-6 1-5-3-5-6-2-5v-12l4-9 5-5z" fill="#2D166A"/>
<path transform="translate(1546,609)" d="m0 0 195 1 4 4h-162l-24-1 3-2-16-1z" fill="#FA7825"/>
<path transform="translate(1546,609)" d="m0 0h21l76 1-3 4h-57l-24-1 3-2-16-1z" fill="#FDE0CE"/>
<path transform="translate(1478,609)" d="m0 0h68l18 1-2 2-7 1h-75z" fill="#6D2EBC"/>
<path transform="translate(1484,704)" d="m0 0h1l1 129h4l1-13h1l1 21-1 1h-17l-1-4v-2l9-2z" fill="#5B21C9"/>
<path transform="translate(886,423)" d="m0 0h22l-2 2-3 1-41 1-10-2v-1z" fill="#5A1FC8"/>
<path transform="translate(1546,609)" d="m0 0h21l7 1v3h-15l3-2-16-1z" fill="#FA853B"/>
<path transform="translate(1477,644)" d="m0 0 2 4 4 16v16h-1l-4-26z" fill="#581ECB"/>
<path transform="translate(1435,523)" d="m0 0 4 2v3h2l2 6 5 8h-3l-10-17z" fill="#9251AD"/>
<path transform="translate(1448,546)" d="m0 0 4 2 5 6-1 7-3-4-5-9z" fill="#773BC0"/>
<path transform="translate(1489,669)" d="m0 0 4 1-1 9-3-3z" fill="#7035C2"/>
</svg>
